PathFileType	4	(X/Y/Z)	Patient4_TMGait_0pt2_02_left_02.trc.trc
DataRate	CameraRate	NumFrames	NumMarkers	Units	OrigDataRate	OrigDataStartFrame	OrigNumFrames
42.813455657492	42.813455657492	4	33	mm	42.813455657492	18	       141
Frame#	Time	R.Midfoot.Superior			Sacral			L.Shoulder			Chest			R.Shoulder			Neck			R.ASIS			L.ASIS			R.Thigh.Superior			R.Thigh.Lateral			R.Thigh.Inferior			R.Patella			L.Thigh.Superior			L.Thigh.Lateral			L.Thigh.Inferior			L.Patella			L.Shank.Superior			L.Shank.Lateral			L.Shank.Inferior			R.Shank.Superior			R.Shank.Lateral			R.Shank.Inferior			R.Heel			R.Midfoot.Lateral			R.Toe			L.Heel			L.Midfoot.Lateral			L.Midfoot.Superior			L.Toe			L.Elbow			L.Wrist			R.Elbow			R.Wrist			
		X1	Y1	Z1	X2	Y2	Z2	X3	Y3	Z3	X4	Y4	Z4	X5	Y5	Z5	X6	Y6	Z6	X7	Y7	Z7	X8	Y8	Z8	X9	Y9	Z9	X10	Y10	Z10	X11	Y11	Z11	X12	Y12	Z12	X13	Y13	Z13	X14	Y14	Z14	X15	Y15	Z15	X16	Y16	Z16	X17	Y17	Z17	X18	Y18	Z18	X19	Y19	Z19	X20	Y20	Z20	X21	Y21	Z21	X22	Y22	Z22	X23	Y23	Z23	X24	Y24	Z24	X25	Y25	Z25	X26	Y26	Z26	X27	Y27	Z27	X28	Y28	Z28	X29	Y29	Z29	X30	Y30	Z30	X31	Y31	Z31	X32	Y32	Z32	X33	Y33	Z33	

18	4.567071428571	930.005207928579	95.200497372798	566.404525598432	794.243121924122	1017.707190471612	569.983439745592	953.458759766214	1428.196608490981	347.444494072257	1089.288369168419	1353.986193322804	479.378366774260	1057.195795053936	1439.288022552716	664.219858555241	975.819626284024	1491.335315304517	500.783100572850	1033.468649759900	929.868736373748	639.117898209980	972.743095171334	963.404033479085	373.299659547647	1042.776046752053	724.207941552851	596.649684209483	959.152185908437	618.910568426104	661.687040609790	1015.810647125648	566.230048638243	566.850151057802	1007.234997437619	477.691990864944	568.725293023813	1042.740766861308	773.083759615975	394.716674326301	984.117321398191	650.529062424626	313.956864526727	1082.448019027859	581.991949574329	371.565961105635	1102.880944995540	512.009563088520	362.506264743900	1071.714099935755	441.511913035035	345.686226998664	981.941297385412	332.834596672084	281.687995335794	1046.006189175939	213.496206644197	326.965089947676	967.676058080488	392.501260814058	574.415928584796	890.636404488025	293.471806899875	637.760994765309	910.975666732248	199.973041988215	563.936102195033	756.890392577773	44.242433142695	534.535738430962	841.953837048613	36.792532971652	606.671781710870	1050.009148895692	40.667676703302	590.786296018729	927.653054347619	49.335353105513	347.476733101769	1003.192620785998	48.961782515646	268.880857981402	1084.978601823190	113.018289124930	296.842044556410	1212.986534119176	66.551955859333	268.671669294293	760.852541386057	1131.578466008766	275.762314029086	676.571331830128	887.609777150830	314.545288024464	1232.255298963366	1159.625595019249	792.289576366389	1473.226598819767	1199.365533917555	715.195766053870	
19	4.590428571429	925.295815095624	95.200271338147	566.412319141585	793.952046740784	1018.191275433201	568.433456217023	950.975380575811	1429.022019152218	345.216820208250	1088.428310302352	1354.130370491491	475.204223262126	1058.521174724329	1439.170881499813	660.427695776938	975.105667511942	1491.490765811379	498.342044376317	1033.483104000606	929.644516928113	635.591418339222	970.713078568008	963.395562450732	370.110896788850	1040.406517692521	723.647235912833	593.940372125711	956.264617371133	619.208030621560	660.008319997762	1011.896015410533	565.696422301577	565.193371346736	1002.440432563570	477.552781444564	567.563999780190	1039.082666742199	771.578201101163	390.367967367294	977.924932540107	649.077714565090	311.395864645003	1076.813446863469	580.456441288749	367.852890349232	1097.143537357727	512.014477543875	359.921759367175	1068.620667187736	441.732310986420	343.716033567251	983.103374733848	329.094766012046	280.452522718283	1051.915715804957	212.506782773657	326.487216025226	963.130076206519	392.516584564731	573.589248109434	885.999156971663	293.732658363386	637.208781122985	906.311463046896	199.964315478751	563.645929268841	752.171406332738	44.240224416236	534.529027526559	837.228462376845	36.772296270557	606.675991481412	1045.282192141082	40.646358838130	590.790741144361	939.151663618908	45.388505913661	347.953684909883	1015.168492156093	45.763790545533	269.734789732086	1095.373996092450	111.973242605501	297.456407676260	1224.663652504195	67.913941194534	270.632456713298	756.164669688995	1134.145610468402	276.786036549118	671.344726493055	890.472128738079	318.035214543689	1241.814281810807	1164.980610089114	784.023263633920	1477.816572947533	1221.487024355671	702.679631764055	
20	4.613785714286	920.586294538936	95.157836709015	566.306846593496	793.821750333523	1018.239804413276	566.369048664445	948.958963057186	1429.392266651572	342.439831654575	1087.730938998494	1353.981316675481	470.836974398231	1059.518897155313	1438.738364090066	656.340908209024	974.470498559262	1491.346540666327	495.379175212661	1033.669098323182	929.291223364944	631.960395733025	969.104798402363	962.878847197694	366.758025947484	1038.702435921615	723.034610886271	591.082206806025	954.152443328097	619.298234321827	658.040336702186	1008.959738731821	565.038733995565	563.333954555705	998.702074672804	477.128832535089	566.188678290382	1035.965415801954	769.615714050632	385.979552039181	972.182393274050	647.128104000404	309.024588005971	1071.701401477875	578.548725980351	364.307247844933	1091.606084570715	511.334632108489	357.486905558888	1065.350091527452	441.286405333514	341.863327712923	983.228118917810	325.454229350822	279.773093700871	1056.007492601437	211.354544828489	326.419612697071	959.364626765599	392.291961579131	572.536235877241	881.926664423249	293.950213776628	636.489806645299	901.983027078890	199.845532600966	563.248720563837	747.484448264779	44.315227439900	534.500060226441	832.524604534541	36.790087278614	606.652619304942	1040.572466439227	40.591463893047	590.807314191893	947.796992856914	42.361680075886	349.263705114182	1023.981472698442	43.122946831384	271.151467551056	1103.101279546330	110.757601177207	298.463716613444	1233.168237475292	68.262803965502	272.466825871672	753.282693490013	1135.190267905948	277.085968338078	668.701826213862	891.504431885458	320.621756898656	1249.745964274472	1169.310112710321	775.569448659157	1480.255410214294	1240.406079050994	690.546815061335	
21	4.637142857143	915.887128853085	95.087665682013	566.111569602015	793.852933488404	1017.944811730793	563.807001524992	947.380256152910	1429.367084380047	339.089026596251	1087.195282241648	1353.616227098958	466.251314387840	1060.222381226785	1438.097585918116	651.945019737577	973.909693166930	1490.977899284877	491.872325732816	1034.024758713841	928.877402286912	628.229424249784	967.931233187930	961.971051353112	363.250683759800	1037.609054151313	722.393269088128	588.093051338517	952.703720363012	619.235682550422	655.805378363992	1006.862346921597	564.291299960154	561.291232979234	995.857899116345	476.480708195177	564.610800126387	1033.502191155657	767.400719363887	381.676332459578	967.162818827310	644.892503830543	306.829186625730	1067.313811389411	576.474397086726	361.001554841451	1086.492142827803	510.141544315280	355.232506020910	1062.117636965897	440.285516299188	340.117120941041	982.489351512781	322.021153726619	279.461255693695	1058.351641812119	210.023207758686	326.624731089371	956.247728383819	391.884025870317	571.277592665693	878.326456085894	294.154065425232	635.624214767510	897.936541134996	199.655976182104	562.757535405700	742.826421543313	44.474599209591	534.458185646086	827.842962738459	36.851921115266	606.610585046143	1035.879699149266	40.506988905467	590.834687010574	953.506226467634	40.161189681702	351.087152704151	1029.625673903769	40.968250526595	272.866740126937	1108.161270368068	109.320297611989	299.705149649133	1238.576331567817	67.554875878284	274.094134801997	752.022986636288	1134.867176968346	276.512428849172	668.339978449828	890.925248877981	322.088211379841	1256.115012987266	1172.659081341509	767.095903397825	1480.995955787127	1256.089018456227	678.867302108954	
